<svg width="21.000000" height="14.000000" viewBox="0 0 21 14" fill="none" xmlns="http://www.w3.org/2000/svg" xmlns:xlink="http://www.w3.org/1999/xlink">
	<desc>
			Created with Pixso.
	</desc>
	<defs>
		<clipPath id="clip7_3857">
			<rect width="21.000000" height="14.000000" fill="white" fill-opacity="0"/>
		</clipPath>
	</defs>
	<rect width="21.000000" height="14.000000" fill="#FFFFFF" fill-opacity="0"/>
	<g clip-path="url(#clip7_3857)">
		<path d="M9.53 1.16C5.21 1.16 1.69 3.6 1.69 6.59C1.69 9.58 5.21 12.02 9.53 12.02C11.38 12.02 13.08 11.58 14.42 10.83L17.68 13.09C17.85 13.2 18.07 13.26 18.3 13.26C18.53 13.26 18.74 13.2 18.91 13.08C19.07 12.97 19.16 12.82 19.16 12.66C19.16 12.51 19.08 12.35 18.92 12.24L15.65 9.98C16.73 9.05 17.38 7.87 17.38 6.59C17.38 3.6 13.85 1.16 9.53 1.16ZM9.53 2.37C12.91 2.37 15.63 4.25 15.63 6.59C15.63 8.93 12.91 10.82 9.53 10.82C6.15 10.82 3.43 8.93 3.43 6.59C3.43 4.25 6.15 2.37 9.53 2.37Z" fill="#443297" fill-opacity="1.000000" fill-rule="nonzero"/>
	</g>
</svg>
